<?xml version="1.0" standalone="no"?>
<!DOCTYPE svg PUBLIC "-//W3C//DTD SVG 20010904//EN"
 "http://www.w3.org/TR/2001/REC-SVG-20010904/DTD/svg10.dtd">
<svg version="1.0" xmlns="http://www.w3.org/2000/svg"
 width="1160.000000pt" height="1280.000000pt" viewBox="0 0 1160.000000 1280.000000"
 preserveAspectRatio="xMidYMid meet">
<metadata>
Created by potrace 1.15, written by Peter Selinger 2001-2017
</metadata>
<g transform="translate(0.000000,1280.000000) scale(0.100000,-0.100000)"
fill="#ff0000" stroke="none">
<path d="M5625 12785 c-316 -49 -595 -226 -777 -491 -56 -81 -133 -244 -158
-334 -52 -187 -50 -83 -50 -2679 0 -2129 2 -2426 16 -2518 76 -513 468 -912
971 -988 636 -96 1222 344 1317 988 14 92 16 389 16 2518 0 2597 2 2493 -50
2679 -27 95 -95 239 -157 332 -97 146 -284 309 -451 392 -192 96 -458 136
-677 101z"/>
<path d="M2465 10349 c-229 -33 -469 -154 -634 -318 -553 -551 -926 -1059
-1230 -1671 -322 -650 -501 -1280 -578 -2035 -24 -236 -24 -821 0 -1055 96
-932 366 -1740 836 -2506 392 -637 934 -1221 1546 -1665 749 -544 1644 -907
2560 -1038 311 -45 465 -55 840 -55 469 1 729 26 1165 114 2253 455 4055 2257
4510 4510 88 436 113 696 114 1165 0 376 -10 532 -55 840 -142 980 -534 1904
-1140 2690 -179 233 -481 570 -503 562 -6 -3 -49 26 -96 64 -83 67 -235 154
-321 185 -351 124 -731 79 -1039 -124 -105 -69 -260 -223 -325 -322 -304 -468
-245 -1069 146 -1459 41 -42 101 -93 132 -115 77 -53 250 -270 383 -481 455
-718 627 -1584 483 -2424 -230 -1345 -1237 -2441 -2562 -2791 -554 -146 -1165
-153 -1722 -20 -416 100 -839 290 -1189 534 -309 216 -631 533 -852 841 -329
457 -546 1008 -619 1568 -113 862 100 1729 599 2441 131 187 351 441 446 517
67 54 190 186 235 254 198 299 249 661 140 1005 -90 284 -317 546 -590 683
-79 39 -229 86 -328 102 -99 16 -256 18 -352 4z"/>
</g>
</svg>
